<svg width="79" height="33" viewBox="0 0 79 33" fill="none" xmlns="http://www.w3.org/2000/svg">
<path d="M38.9959 12.1709L31.7988 29.0944H28.0152L30.6473 23.2544L25.9794 12.1709H29.907L32.5597 19.3474L35.1918 12.1709H38.9959ZM51.5978 12.1709V23.6451H48.0815V22.0823C47.7251 22.5896 47.2384 23.0008 46.6215 23.3161C46.0183 23.6177 45.3466 23.7685 44.6063 23.7685C43.729 23.7685 42.9544 23.5766 42.2827 23.1928C41.611 22.7952 41.09 22.2263 40.7199 21.486C40.3497 20.7457 40.1647 19.8752 40.1647 18.8745V12.1709H43.6604V18.4015C43.6604 19.1692 43.8592 19.7656 44.2568 20.1905C44.6543 20.6155 45.189 20.828 45.8607 20.828C46.5461 20.828 47.0876 20.6155 47.4852 20.1905C47.8827 19.7656 48.0815 19.1692 48.0815 18.4015V12.1709H51.5978ZM58.7914 23.8096C57.7907 23.8096 56.8996 23.6383 56.1182 23.2956C55.3368 22.9528 54.7199 22.4867 54.2675 21.8973C53.8151 21.2941 53.5615 20.6224 53.5067 19.8821H56.9818C57.023 20.2796 57.208 20.6018 57.537 20.8485C57.8661 21.0953 58.2705 21.2187 58.7503 21.2187C59.189 21.2187 59.5248 21.1364 59.7579 20.9719C60.0046 20.7937 60.128 20.5675 60.128 20.2933C60.128 19.9643 59.9567 19.7244 59.6139 19.5736C59.2712 19.4091 58.716 19.2309 57.9483 19.039C57.1258 18.8471 56.4403 18.6483 55.892 18.4427C55.3436 18.2233 54.8707 17.8874 54.4731 17.4351C54.0756 16.969 53.8768 16.3452 53.8768 15.5638C53.8768 14.9058 54.055 14.3094 54.4114 13.7748C54.7816 13.2265 55.3162 12.7946 56.0154 12.4793C56.7282 12.164 57.5713 12.0064 58.5446 12.0064C59.9841 12.0064 61.115 12.3628 61.9376 13.0757C62.7738 13.7885 63.2536 14.7344 63.377 15.9134H60.128C60.0732 15.5158 59.895 15.2005 59.5934 14.9675C59.3055 14.7344 58.9216 14.6179 58.4418 14.6179C58.0306 14.6179 57.7153 14.7001 57.4959 14.8647C57.2766 15.0155 57.1669 15.2279 57.1669 15.5021C57.1669 15.8311 57.3383 16.0779 57.681 16.2424C58.0374 16.4069 58.5858 16.5714 59.326 16.7359C60.176 16.9552 60.8683 17.1746 61.4029 17.3939C61.9376 17.5996 62.4037 17.9423 62.8012 18.4221C63.2125 18.8882 63.425 19.5188 63.4387 20.3139C63.4387 20.9856 63.2468 21.5888 62.8629 22.1235C62.4928 22.6444 61.9513 23.0557 61.2384 23.3573C60.5393 23.6589 59.7236 23.8096 58.7914 23.8096ZM72.6431 12.0475C73.9592 12.0475 75.0148 12.4862 75.8099 13.3635C76.605 14.2272 77.0025 15.4199 77.0025 16.9415V23.6451H73.5068V17.4145C73.5068 16.6468 73.308 16.0505 72.9105 15.6255C72.5129 15.2005 71.9783 14.988 71.3065 14.988C70.6348 14.988 70.1001 15.2005 69.7026 15.6255C69.305 16.0505 69.1063 16.6468 69.1063 17.4145V23.6451H65.59V8.42837H69.1063V13.7131C69.4627 13.2059 69.9494 12.8015 70.5662 12.4999C71.1831 12.1983 71.8754 12.0475 72.6431 12.0475Z" fill= "#fff"/>
<rect x="22" y="27.6775" width="6.3871" height="22" transform="rotate(-180 22 27.6775)" fill="#5500FF"/>
<rect x="14.1935" y="22" width="6.3871" height="22" transform="rotate(-180 14.1935 22)" fill="#5500FF"/>
<rect x="6.38708" y="32.6451" width="6.3871" height="22" transform="rotate(-180 6.38708 32.6451)" fill="#5500FF"/>
</svg>