<svg width="44" height="44" viewBox="0 0 36 36" fill="none" xmlns="http://www.w3.org/2000/svg">
<rect width="36" height="36" rx="6"/>
<path d="M6.51207 9.55079C6.45653 7.95353 7.70082 6.48071 9.38293 6.48071H26.6189C28.301 6.48071 29.5453 7.95353 29.4897 9.55079C29.4363 11.085 29.5057 13.0725 30.0058 14.693C30.5076 16.3186 31.3537 17.3459 32.7396 17.4781V18.975C31.3537 19.107 30.5076 20.1345 30.0058 21.7601C29.5057 23.3806 29.4363 25.3681 29.4897 26.9023C29.5453 28.4995 28.301 29.9721 26.6189 29.9721H9.38293C7.70082 29.9721 6.45653 28.4993 6.51207 26.9023C6.56551 25.3681 6.49614 23.3806 5.99575 21.7601C5.49418 20.1347 4.64575 19.1072 3.25989 18.975V17.4781C4.64575 17.3461 5.49418 16.3186 5.99575 14.693C6.49614 13.0725 6.56528 11.085 6.51207 9.55079Z" fill="url(#paint0_linear_30_23)"/>
<g filter="url(#filter0_d_30_23)">
<path d="M18.7289 24.5564C21.4521 24.5564 23.0929 23.2231 23.0929 21.0239C23.0929 19.3615 21.9222 18.158 20.1836 17.9675V17.8981C21.461 17.6904 22.4632 16.5043 22.4632 15.1793C22.4632 13.2919 20.973 12.0624 18.7021 12.0624H13.5928V24.5564H18.7289ZM15.5798 13.647H18.2233C19.66 13.647 20.4764 14.2875 20.4764 15.4479C20.4764 16.6859 19.5271 17.3787 17.8064 17.3787H15.5798V13.647ZM15.5798 22.9721V18.8593H18.2055C20.0859 18.8593 21.0616 19.5518 21.0616 20.9025C21.0616 22.2532 20.1126 22.9721 18.3208 22.9721H15.5798Z" fill="url(#paint1_linear_30_23)"/>
<path d="M18.7289 24.5564C21.4521 24.5564 23.0929 23.2231 23.0929 21.0239C23.0929 19.3615 21.9222 18.158 20.1836 17.9675V17.8981C21.461 17.6904 22.4632 16.5043 22.4632 15.1793C22.4632 13.2919 20.973 12.0624 18.7021 12.0624H13.5928V24.5564H18.7289ZM15.5798 13.647H18.2233C19.66 13.647 20.4764 14.2875 20.4764 15.4479C20.4764 16.6859 19.5271 17.3787 17.8064 17.3787H15.5798V13.647ZM15.5798 22.9721V18.8593H18.2055C20.0859 18.8593 21.0616 19.5518 21.0616 20.9025C21.0616 22.2532 20.1126 22.9721 18.3208 22.9721H15.5798Z" fill="white"/>
</g>
<defs>
<filter id="filter0_d_30_23" x="9.66277" y="9.11538" width="17.3601" height="20.354" filterUnits="userSpaceOnUse" color-interpolation-filters="sRGB">
<feFlood flood-opacity="0" result="BackgroundImageFix"/>
<feColorMatrix in="SourceAlpha" type="matrix" values="0 0 0 0 0 0 0 0 0 0 0 0 0 0 0 0 0 0 127 0" result="hardAlpha"/>
<feOffset dy="0.983"/>
<feGaussianBlur stdDeviation="1.965"/>
<feColorMatrix type="matrix" values="0 0 0 0 0 0 0 0 0 0 0 0 0 0 0 0 0 0 0.15 0"/>
<feBlend mode="normal" in2="BackgroundImageFix" result="effect1_dropShadow_30_23"/>
<feBlend mode="normal" in="SourceGraphic" in2="effect1_dropShadow_30_23" result="shape"/>
</filter>
<linearGradient id="paint0_linear_30_23" x1="7.64059" y1="7.10251" x2="33.4003" y2="27.5508" gradientUnits="userSpaceOnUse">
<stop stop-color="#9013FE"/>
<stop offset="1" stop-color="#6610F2"/>
</linearGradient>
<linearGradient id="paint1_linear_30_23" x1="14.4918" y1="12.8846" x2="20.2495" y2="22.6224" gradientUnits="userSpaceOnUse">
<stop stop-color="white"/>
<stop offset="1" stop-color="#F1E5FC"/>
</linearGradient>
</defs>
</svg>
