<svg width="55" height="55" viewBox="0 0 55 55" fill="none" xmlns="http://www.w3.org/2000/svg">
<g filter="url(#filter0_d_30_23)">
<rect x="4" width="47" height="47" rx="8"/>
</g>
<path d="M15.0086 38.3012L12.3414 8.375H41.6584L38.9877 38.2964L26.9821 41.625L15.0086 38.3012Z" fill="#1572B6"/>
<path d="M27 39.0813L36.7019 36.3916L38.9842 10.8224H27V39.0813Z" fill="#33A9DC"/>
<path d="M27 21.6644H31.8569L32.1917 17.9059H27V14.2354H36.2031L36.1153 15.2198L35.2139 25.3349H27V21.6644Z" fill="white"/>
<path d="M27.0225 31.1964L27.0058 31.2011L22.9185 30.0967L22.6572 27.1696H18.9724L19.4866 32.9325L27.0047 35.0201L27.0225 35.0154V31.1964Z" fill="#EBEBEB"/>
<path d="M31.5446 25.1793L31.1028 30.0944L27.0095 31.1988V35.0178L34.5335 32.9325L34.5893 32.3126L35.227 25.1793H31.5446Z" fill="white"/>
<path d="M27.013 14.2354V17.9059H18.1472L18.0735 17.0806L17.9061 15.2198L17.8182 14.2354H27.013ZM27 21.6644V25.3349H22.9637L22.89 24.5096L22.7238 22.6488L22.6359 21.6644H27Z" fill="#EBEBEB"/>
</svg>
