<svg width="44" height="44" viewBox="0 0 44 44" fill="none" xmlns="http://www.w3.org/2000/svg">
<rect width="44" height="44" rx="5"/>
<path d="M11.902 33.201L9.65503 8H34.345L32.095 33.197L21.985 36L11.902 33.201Z" fill="#E44F26"/>
<path d="M22 33.858L30.17 31.593L32.092 10.061H22V33.858Z" fill="#F1662A"/>
<path d="M22 19.407H17.91L17.628 16.242H22V13.151H14.25L14.324 13.981L15.083 22.498H22V19.407ZM22 27.434L21.986 27.438L18.544 26.509L18.324 24.044H15.221L15.654 28.896L21.986 30.654L22 30.65V27.434Z" fill="#EBEBEB"/>
<path d="M21.989 19.407V22.498H25.795L25.437 26.507L21.989 27.437V30.653L28.326 28.896L28.372 28.374L29.098 20.237L29.174 19.407H21.989ZM21.989 13.151V16.242H29.455L29.517 15.548L29.658 13.981L29.732 13.151H21.989Z" fill="white"/>
</svg>
