<svg width="44" height="44" viewBox="0 0 44 44" fill="none" xmlns="http://www.w3.org/2000/svg">
<rect width="44" height="44" rx="6"/>
<path d="M6 13C6 9.68629 8.68629 7 12 7H31C34.3137 7 37 9.68629 37 13V32C37 35.3137 34.3137 38 31 38H12C8.68629 38 6 35.3137 6 32V13Z" fill="#F7DF1E"/>
<path d="M14.151 32.9057L16.5232 31.47C16.981 32.2815 17.3973 32.9681 18.3959 32.9681C19.3532 32.9681 19.9568 32.5937 19.9568 31.1372V21.2319H22.87V31.1783C22.87 34.1956 21.1013 35.5691 18.5208 35.5691C16.1903 35.5691 14.8376 34.3621 14.1509 32.9055M24.4523 32.5936L26.8243 31.2202C27.4488 32.24 28.2604 32.989 29.696 32.989C30.9032 32.989 31.6729 32.3855 31.6729 31.5531C31.6729 30.5543 30.8822 30.2005 29.5504 29.618L28.8222 29.3056C26.7204 28.4111 25.3263 27.2873 25.3263 24.9151C25.3263 22.7301 26.9909 21.0653 29.5921 21.0653C31.4442 21.0653 32.7759 21.7105 33.7331 23.396L31.4647 24.8528C30.9652 23.958 30.4244 23.6043 29.592 23.6043C28.7388 23.6043 28.1978 24.1453 28.1978 24.8528C28.1978 25.7267 28.7388 26.0806 29.9873 26.6217L30.7155 26.9338C33.1919 27.9951 34.5861 29.0771 34.5861 31.5116C34.5861 34.1337 32.526 35.5694 29.7584 35.5694C27.0533 35.5694 25.3053 34.2793 24.4522 32.5937" fill="black"/>
</svg>
