<svg width="44" height="44" viewBox="0 0 36 36" fill="none" xmlns="http://www.w3.org/2000/svg">
<rect width="36" height="36" rx="6"/>
<path d="M26.1813 14.0783C25.92 13.9887 25.6566 13.9056 25.3912 13.8293C25.4358 13.6471 25.4768 13.4671 25.5133 13.2903C26.1114 10.387 25.7204 8.04796 24.3848 7.27785C23.1043 6.53956 21.0102 7.30939 18.8953 9.15001C18.6868 9.33173 18.483 9.51869 18.284 9.71072C18.1508 9.58304 18.0153 9.45783 17.8774 9.33516C15.6608 7.36711 13.4391 6.53765 12.105 7.30997C10.8257 8.05055 10.4468 10.2494 10.9853 13.001C11.0389 13.2735 11.0994 13.5446 11.1667 13.814C10.8522 13.9034 10.5488 13.9985 10.2583 14.0998C7.6596 15.0058 6 16.4257 6 17.8985C6 19.4197 7.78165 20.9454 10.4884 21.8706C10.7078 21.9453 10.9291 22.0145 11.152 22.0782C11.0796 22.3684 11.0153 22.6606 10.9592 22.9543C10.4459 25.6582 10.8468 27.805 12.1227 28.5409C13.4404 29.3009 15.6522 28.5198 17.8058 26.6372C17.9804 26.4841 18.1512 26.3268 18.318 26.1652C18.5335 26.3731 18.7547 26.575 18.9815 26.7706C21.0676 28.5657 23.1279 29.2905 24.4026 28.5526C25.7191 27.7905 26.147 25.4841 25.5915 22.6782C25.5477 22.4584 25.4987 22.2396 25.4443 22.0222C25.5996 21.9762 25.7521 21.9288 25.9007 21.8795C28.7146 20.9473 30.5455 19.44 30.5455 17.8985C30.5455 16.4204 28.8323 14.9909 26.1813 14.0783ZM25.571 20.8843C25.4366 20.9286 25.2992 20.9716 25.1587 21.0132C24.848 20.0298 24.4288 18.9841 23.9158 17.9036C24.4054 16.8489 24.8084 15.8166 25.1104 14.8396C25.3615 14.9122 25.6051 14.9889 25.84 15.0697C28.1114 15.8517 29.4969 17.0077 29.4969 17.8985C29.4969 18.8474 28.0006 20.0792 25.571 20.8843ZM24.5629 22.8819C24.8085 24.1225 24.8435 25.2444 24.6808 26.1214C24.5347 26.9094 24.2407 27.4347 23.8771 27.6452C23.1037 28.093 21.4494 27.511 19.6654 25.9757C19.4545 25.7939 19.2487 25.6062 19.0482 25.4129C19.7399 24.6565 20.4311 23.7772 21.1057 22.8005C22.2923 22.6953 23.4134 22.5231 24.43 22.2881C24.4802 22.4902 24.5245 22.6881 24.5629 22.8819ZM14.3681 27.5678C13.6124 27.8347 13.0104 27.8423 12.6465 27.6325C11.8723 27.186 11.5504 25.4622 11.9895 23.1499C12.0417 22.8767 12.1014 22.605 12.1687 22.335C13.1741 22.5575 14.287 22.7174 15.4764 22.8139C16.1556 23.7695 16.8667 24.6479 17.5834 25.417C17.4311 25.5644 17.2752 25.708 17.1158 25.8477C16.1634 26.6802 15.2091 27.2708 14.3681 27.5678ZM10.8276 20.8784C9.63071 20.4693 8.64228 19.9376 7.96479 19.3575C7.35594 18.8362 7.04865 18.3185 7.04865 17.8985C7.04865 17.0047 8.3811 15.8647 10.6035 15.0899C10.8732 14.996 11.1555 14.9073 11.4484 14.824C11.7556 15.8231 12.1585 16.8677 12.6447 17.9241C12.1522 18.996 11.7435 20.0573 11.4334 21.0682C11.2299 21.0099 11.0279 20.9466 10.8276 20.8784ZM12.0144 12.7995C11.5531 10.4421 11.8595 8.6638 12.6304 8.21748C13.4516 7.7421 15.2673 8.41988 17.1812 10.1193C17.306 10.2303 17.4288 10.3436 17.5495 10.4592C16.8363 11.225 16.1317 12.0968 15.4585 13.0468C14.3041 13.1538 13.1991 13.3256 12.1832 13.5558C12.1205 13.3052 12.0643 13.053 12.0144 12.7995ZM22.6022 15.4141C22.3622 14.9996 22.1134 14.5903 21.8558 14.1865C22.6389 14.2856 23.3893 14.417 24.0939 14.5777C23.8824 15.2558 23.6187 15.9646 23.3084 16.6914C23.0815 16.261 22.8461 15.8351 22.6022 15.4141ZM18.2845 11.2087C18.7681 11.7327 19.2525 12.3176 19.729 12.9524C18.7625 12.9067 17.7944 12.9065 16.8279 12.9518C17.3048 12.3229 17.7933 11.7387 18.2845 11.2087ZM13.9391 15.4212C13.6983 15.8388 13.4672 16.262 13.2462 16.6905C12.9409 15.9663 12.6796 15.2542 12.4663 14.5665C13.1666 14.4098 13.9134 14.2817 14.6916 14.1845C14.4311 14.5908 14.1802 15.0032 13.9391 15.4212ZM14.7139 21.6871C13.91 21.5973 13.1519 21.4759 12.4518 21.3234C12.6685 20.6235 12.9355 19.8962 13.2474 19.1565C13.4694 19.5852 13.7014 20.0087 13.9432 20.4265C14.1919 20.8561 14.4495 21.2768 14.7139 21.6871ZM18.3135 24.6623C17.8164 24.1261 17.3207 23.5329 16.8366 22.8949C17.3066 22.9133 17.7857 22.9227 18.2727 22.9227C18.773 22.9227 19.2676 22.9115 19.7544 22.8898C19.2764 23.5393 18.7938 24.1334 18.3135 24.6623ZM23.3183 19.1187C23.6464 19.8666 23.9229 20.59 24.1424 21.278C23.4308 21.4404 22.6624 21.5712 21.8528 21.6683C22.1123 21.257 22.3635 20.8406 22.6063 20.4193C22.8533 19.9911 23.0906 19.5575 23.3183 19.1187ZM21.6981 19.8955C21.3262 20.5413 20.9335 21.175 20.5206 21.7953C19.7725 21.8483 19.0227 21.8747 18.2727 21.8742C17.5088 21.8742 16.7659 21.8505 16.0504 21.8041C15.6266 21.1851 15.2264 20.5504 14.8506 19.9012C14.4766 19.2555 14.1273 18.5958 13.8034 17.9235C14.1265 17.251 14.4748 16.591 14.8476 15.9448L14.8475 15.9449C15.2201 15.2985 15.6171 14.6664 16.0377 14.0502C16.7676 13.995 17.5161 13.9662 18.2726 13.9662C19.0326 13.9662 19.7822 13.9952 20.5119 14.0509C20.9283 14.6662 21.3227 15.296 21.6946 15.9392C22.0686 16.5841 22.4215 17.2409 22.7528 17.9086C22.4249 18.5832 22.0731 19.2459 21.6981 19.8955ZM23.8611 8.18612C24.683 8.66016 25.0027 10.5717 24.4863 13.0785C24.4532 13.2386 24.4164 13.4013 24.376 13.5666C23.3576 13.3315 22.2518 13.1567 21.094 13.048C20.4196 12.0876 19.7207 11.2144 19.0192 10.4585C19.203 10.2813 19.3913 10.1086 19.5837 9.94074C21.3958 8.36379 23.0895 7.74114 23.8611 8.18612ZM18.2727 15.7067C19.4832 15.7067 20.4646 16.6881 20.4646 17.8985C20.4646 19.109 19.4832 20.0904 18.2727 20.0904C17.0622 20.0904 16.0809 19.109 16.0809 17.8985C16.0809 16.6881 17.0622 15.7067 18.2727 15.7067Z" fill="#00D8FF"/>
</svg>
