<svg width="55" height="55" viewBox="0 0 55 55" fill="none" xmlns="http://www.w3.org/2000/svg">
<rect x="4" width="44" height="44" rx="8" fill="#121212"/>
<g filter="url(#filter0_d_30_23)">
<rect x="4" width="47" height="47" rx="8"/>
</g>
<path d="M27.5 12C22.8332 12 19.9176 14.5547 18.75 19.6662C20.4995 17.1112 22.5418 16.1531 24.8745 16.7919C26.2064 17.1555 27.1582 18.2133 28.2123 19.3855C29.9279 21.2924 31.9136 23.5 36.25 23.5C40.9165 23.5 43.8324 20.945 45 15.8323C43.25 18.3886 41.2084 19.3472 38.8753 18.7081C37.5436 18.3442 36.5929 17.2867 35.5374 16.1145C33.823 14.2076 31.8378 12 27.5 12ZM18.75 23.5C14.0835 23.5 11.1676 26.055 10 31.1677C11.7498 28.6114 13.7913 27.6528 16.1245 28.2919C17.4564 28.6558 18.4082 29.7133 19.4623 30.8855C21.1779 32.7924 23.1636 35 27.5 35C32.1665 35 35.0824 32.4453 36.25 27.3338C34.5 29.8889 32.4584 30.847 30.1253 30.2081C28.7936 29.8445 27.8429 28.7867 26.7874 27.6145C25.073 25.7076 23.0878 23.5 18.75 23.5Z" fill="#38BDF8"/>
</svg>
